<svg xmlns="http://www.w3.org/2000/svg" xmlns:xlink="http://www.w3.org/1999/xlink" contentStyleType="text/css" height="733px" preserveAspectRatio="none" style="width:1454px;height:733px;background:#FFFFFF;" version="1.1" viewBox="0 0 1454 733" width="1454px" zoomAndPan="magnify"><defs/><g><!--cluster d77d5e503ad1439f585ac494268b351b--><g id="cluster_d77d5e503ad1439f585ac494268b351b"><polygon fill="none" points="16,56.74,26,46.74,466,46.74,466,615.56,456,625.56,16,625.56,16,56.74" style="stroke:#181818;stroke-width:1.0;"/><line style="stroke:#181818;stroke-width:1.0;" x1="456" x2="466" y1="56.74" y2="46.74"/><line style="stroke:#181818;stroke-width:1.0;" x1="16" x2="456" y1="56.74" y2="56.74"/><line style="stroke:#181818;stroke-width:1.0;" x1="456" x2="456" y1="56.74" y2="625.56"/><text fill="#000000" font-family="sans-serif" font-size="14" font-weight="bold" lengthAdjust="spacing" textLength="21" x="226.5" y="72.7351">Db</text></g><!--cluster 2567a5ec9705eb7ac2c984033e06189d--><g id="cluster_2567a5ec9705eb7ac2c984033e06189d"><polygon fill="none" points="490,16,500,6,1094,6,1094,615.56,1084,625.56,490,625.56,490,16" style="stroke:#181818;stroke-width:1.0;"/><line style="stroke:#181818;stroke-width:1.0;" x1="1084" x2="1094" y1="16" y2="6"/><line style="stroke:#181818;stroke-width:1.0;" x1="490" x2="1084" y1="16" y2="16"/><line style="stroke:#181818;stroke-width:1.0;" x1="1084" x2="1084" y1="16" y2="625.56"/><text fill="#000000" font-family="sans-serif" font-size="14" font-weight="bold" lengthAdjust="spacing" textLength="35" x="770.5" y="31.9951">Web</text></g><!--cluster 86a1b907d54bf7010394bf316e183e67--><g id="cluster_86a1b907d54bf7010394bf316e183e67"><polygon fill="none" points="1180,64.89,1190,54.89,1386,54.89,1386,615.56,1376,625.56,1180,625.56,1180,64.89" style="stroke:#181818;stroke-width:1.0;"/><line style="stroke:#181818;stroke-width:1.0;" x1="1376" x2="1386" y1="64.89" y2="54.89"/><line style="stroke:#181818;stroke-width:1.0;" x1="1180" x2="1376" y1="64.89" y2="64.89"/><line style="stroke:#181818;stroke-width:1.0;" x1="1376" x2="1376" y1="64.89" y2="625.56"/><text fill="#000000" font-family="sans-serif" font-size="14" font-weight="bold" lengthAdjust="spacing" textLength="43" x="1257.5" y="80.8851">Redis</text></g><!--entity 355aeb7ac3f8fa43e8d94fbf0e4b8d6c--><g id="elem_355aeb7ac3f8fa43e8d94fbf0e4b8d6c"><rect fill="#F1F1F1" height="127.7813" rx="2.5" ry="2.5" style="stroke:#181818;stroke-width:0.5;" width="417" x="32.5" y="86.74"/><rect fill="#F1F1F1" height="10" style="stroke:#181818;stroke-width:0.5;" width="15" x="429.5" y="91.74"/><rect fill="#F1F1F1" height="2" style="stroke:#181818;stroke-width:0.5;" width="4" x="427.5" y="93.74"/><rect fill="#F1F1F1" height="2" style="stroke:#181818;stroke-width:0.5;" width="4" x="427.5" y="97.74"/><text fill="#000000" font-family="sans-serif" font-size="14" font-weight="bold" lengthAdjust="spacing" textLength="20" x="47.5" y="119.7351">db</text><text fill="#000000" font-family="sans-serif" font-size="14" lengthAdjust="spacing" textLength="4" x="47.5" y="136.032">&#160;</text><text fill="#000000" font-family="sans-serif" font-size="14" lengthAdjust="spacing" textLength="149" x="47.5" y="152.3289">image: postgres:12.3</text><text fill="#000000" font-family="sans-serif" font-size="14" lengthAdjust="spacing" textLength="377" x="47.5" y="168.6257">environment: POSTGRES_HOST_AUTH_METHOD=trust</text><text fill="#000000" font-family="sans-serif" font-size="14" lengthAdjust="spacing" textLength="320" x="47.5" y="184.9226">environment: POSTGRES_DB=djangosnippets</text><text fill="#000000" font-family="sans-serif" font-size="14" lengthAdjust="spacing" textLength="4" x="47.5" y="201.2195">&#160;</text></g><!--entity d5baecb173d637b4e1f821d6b00b6f89--><g id="elem_d5baecb173d637b4e1f821d6b00b6f89"><rect fill="#F1F1F1" height="39.2969" rx="2.5" ry="2.5" style="stroke:#181818;stroke-width:0.5;" width="189" x="146.5" y="570.27"/><polygon fill="#F1F1F1" points="318.5,575.27,318.5,589.27,330.5,589.27,330.5,581.27,324.5,575.27,318.5,575.27" style="stroke:#181818;stroke-width:0.5;"/><line style="stroke:#181818;stroke-width:0.5;" x1="324.5" x2="324.5" y1="575.27" y2="581.27"/><line style="stroke:#181818;stroke-width:0.5;" x1="330.5" x2="324.5" y1="581.27" y2="581.27"/><text fill="#000000" font-family="sans-serif" font-size="14" lengthAdjust="spacing" textLength="159" x="156.5" y="596.2651">/var/lib/postgresql/data</text></g><!--entity 04a565d19766ebe0348853b17c395bd1--><g id="elem_04a565d19766ebe0348853b17c395bd1"><rect fill="#F1F1F1" height="209.2656" rx="2.5" ry="2.5" style="stroke:#181818;stroke-width:0.5;" width="571" x="506.5" y="46"/><rect fill="#F1F1F1" height="10" style="stroke:#181818;stroke-width:0.5;" width="15" x="1057.5" y="51"/><rect fill="#F1F1F1" height="2" style="stroke:#181818;stroke-width:0.5;" width="4" x="1055.5" y="53"/><rect fill="#F1F1F1" height="2" style="stroke:#181818;stroke-width:0.5;" width="4" x="1055.5" y="57"/><text fill="#000000" font-family="sans-serif" font-size="14" font-weight="bold" lengthAdjust="spacing" textLength="34" x="521.5" y="78.9951">web</text><text fill="#000000" font-family="sans-serif" font-size="14" lengthAdjust="spacing" textLength="4" x="521.5" y="95.292">&#160;</text><text fill="#000000" font-family="sans-serif" font-size="14" lengthAdjust="spacing" textLength="371" x="521.5" y="111.5889">environment: REDISTOGO_URL=${REDISTOGO_URL}</text><text fill="#000000" font-family="sans-serif" font-size="14" lengthAdjust="spacing" textLength="315" x="521.5" y="127.8857">environment: SECRET_KEY=${SECRET_KEY}</text><text fill="#000000" font-family="sans-serif" font-size="14" lengthAdjust="spacing" textLength="237" x="521.5" y="144.1826">environment: DEBUG=${DEBUG}</text><text fill="#000000" font-family="sans-serif" font-size="14" lengthAdjust="spacing" textLength="379" x="521.5" y="160.4795">environment: ALLOWED_HOSTS=${ALLOWED_HOSTS}</text><text fill="#000000" font-family="sans-serif" font-size="14" lengthAdjust="spacing" textLength="353" x="521.5" y="176.7764">environment: DATABASE_URL=${DATABASE_URL}</text><text fill="#000000" font-family="sans-serif" font-size="14" lengthAdjust="spacing" textLength="531" x="521.5" y="193.0732">environment: DJANGO_SETTINGS_MODULE=${DJANGO_SETTINGS_MODULE}</text><text fill="#000000" font-family="sans-serif" font-size="14" lengthAdjust="spacing" textLength="441" x="521.5" y="209.3701">environment: SEARCHBOX_SSL_URL=${SEARCHBOX_SSL_URL}</text><text fill="#000000" font-family="sans-serif" font-size="14" lengthAdjust="spacing" textLength="503" x="521.5" y="225.667">environment: SESSION_COOKIE_SECURE=${SESSION_COOKIE_SECURE}</text><text fill="#000000" font-family="sans-serif" font-size="14" lengthAdjust="spacing" textLength="4" x="521.5" y="241.9639">&#160;</text></g><!--entity fd433df176955d196b161b0a41a19970--><g id="elem_fd433df176955d196b161b0a41a19970"><ellipse cx="953" cy="345.27" fill="#F1F1F1" rx="8" ry="8" style="stroke:#181818;stroke-width:0.5;"/><text fill="#000000" font-family="sans-serif" font-size="14" lengthAdjust="spacing" textLength="36" x="935" y="375.2651">8000</text></g><!--entity 4ae8434c535c76df893919c2b9c9c766--><g id="elem_4ae8434c535c76df893919c2b9c9c766"><rect fill="#F1F1F1" height="39.2969" rx="2.5" ry="2.5" style="stroke:#181818;stroke-width:0.5;" width="70" x="757" y="570.27"/><polygon fill="#F1F1F1" points="810,575.27,810,589.27,822,589.27,822,581.27,816,575.27,810,575.27" style="stroke:#181818;stroke-width:0.5;"/><line style="stroke:#181818;stroke-width:0.5;" x1="816" x2="816" y1="575.27" y2="581.27"/><line style="stroke:#181818;stroke-width:0.5;" x1="822" x2="816" y1="581.27" y2="581.27"/><text fill="#000000" font-family="sans-serif" font-size="14" lengthAdjust="spacing" textLength="40" x="767" y="596.2651">/code</text></g><!--entity 3c217ea98bfddc0f9ff1c849de325d93--><g id="elem_3c217ea98bfddc0f9ff1c849de325d93"><rect fill="#F1F1F1" height="111.4844" rx="2.5" ry="2.5" style="stroke:#181818;stroke-width:0.5;" width="174" x="1196" y="94.89"/><rect fill="#F1F1F1" height="10" style="stroke:#181818;stroke-width:0.5;" width="15" x="1350" y="99.89"/><rect fill="#F1F1F1" height="2" style="stroke:#181818;stroke-width:0.5;" width="4" x="1348" y="101.89"/><rect fill="#F1F1F1" height="2" style="stroke:#181818;stroke-width:0.5;" width="4" x="1348" y="105.89"/><text fill="#000000" font-family="sans-serif" font-size="14" font-weight="bold" lengthAdjust="spacing" textLength="40" x="1211" y="127.8851">redis</text><text fill="#000000" font-family="sans-serif" font-size="14" lengthAdjust="spacing" textLength="4" x="1211" y="144.182">&#160;</text><text fill="#000000" font-family="sans-serif" font-size="14" lengthAdjust="spacing" textLength="99" x="1211" y="160.4789">restart: always</text><text fill="#000000" font-family="sans-serif" font-size="14" lengthAdjust="spacing" textLength="134" x="1211" y="176.7757">image: redis:3.2.12</text><text fill="#000000" font-family="sans-serif" font-size="14" lengthAdjust="spacing" textLength="4" x="1211" y="193.0726">&#160;</text></g><!--entity 09876deab5af8de0c168ec3aa053742d--><g id="elem_09876deab5af8de0c168ec3aa053742d"><ellipse cx="1343" cy="345.27" fill="#F1F1F1" rx="8" ry="8" style="stroke:#181818;stroke-width:0.5;"/><text fill="#000000" font-family="sans-serif" font-size="14" lengthAdjust="spacing" textLength="36" x="1325" y="375.2651">6379</text></g><!--entity 4ee201798dddc2e46fd8eed211348fce--><g id="elem_4ee201798dddc2e46fd8eed211348fce"><rect fill="#F1F1F1" height="39.2969" rx="2.5" ry="2.5" style="stroke:#181818;stroke-width:0.5;" width="65" x="1247.5" y="570.27"/><polygon fill="#F1F1F1" points="1295.5,575.27,1295.5,589.27,1307.5,589.27,1307.5,581.27,1301.5,575.27,1295.5,575.27" style="stroke:#181818;stroke-width:0.5;"/><line style="stroke:#181818;stroke-width:0.5;" x1="1301.5" x2="1301.5" y1="575.27" y2="581.27"/><line style="stroke:#181818;stroke-width:0.5;" x1="1307.5" x2="1301.5" y1="581.27" y2="581.27"/><text fill="#000000" font-family="sans-serif" font-size="14" lengthAdjust="spacing" textLength="35" x="1257.5" y="596.2651">/data</text></g><!--entity dd5081e4df460924c073d6b5edea2694--><g id="elem_dd5081e4df460924c073d6b5edea2694"><rect fill="#F1F1F1" height="39.2969" rx="2.5" ry="2.5" style="stroke:#181818;stroke-width:0.5;" width="122" x="180" y="688.56"/><polygon fill="#F1F1F1" points="285,693.56,285,707.56,297,707.56,297,699.56,291,693.56,285,693.56" style="stroke:#181818;stroke-width:0.5;"/><line style="stroke:#181818;stroke-width:0.5;" x1="291" x2="291" y1="693.56" y2="699.56"/><line style="stroke:#181818;stroke-width:0.5;" x1="297" x2="291" y1="699.56" y2="699.56"/><text fill="#000000" font-family="sans-serif" font-size="14" lengthAdjust="spacing" textLength="92" x="190" y="714.5551">postgresdata</text></g><!--entity 58b9e70b65a77700ba66e9c64d6b9f89--><g id="elem_58b9e70b65a77700ba66e9c64d6b9f89"><rect fill="#F1F1F1" height="39.2969" rx="2.5" ry="2.5" style="stroke:#181818;stroke-width:0.5;" width="34" x="775" y="688.56"/><polygon fill="#F1F1F1" points="792,693.56,792,707.56,804,707.56,804,699.56,798,693.56,792,693.56" style="stroke:#181818;stroke-width:0.5;"/><line style="stroke:#181818;stroke-width:0.5;" x1="798" x2="798" y1="693.56" y2="699.56"/><line style="stroke:#181818;stroke-width:0.5;" x1="804" x2="798" y1="699.56" y2="699.56"/><text fill="#000000" font-family="sans-serif" font-size="14" lengthAdjust="spacing" textLength="4" x="785" y="714.5551">.</text></g><!--entity 312384a9c6abb025f036cb3abb76dfa0--><g id="elem_312384a9c6abb025f036cb3abb76dfa0"><rect fill="#F1F1F1" height="39.2969" rx="2.5" ry="2.5" style="stroke:#181818;stroke-width:0.5;" width="94" x="1233" y="688.56"/><polygon fill="#F1F1F1" points="1310,693.56,1310,707.56,1322,707.56,1322,699.56,1316,693.56,1310,693.56" style="stroke:#181818;stroke-width:0.5;"/><line style="stroke:#181818;stroke-width:0.5;" x1="1316" x2="1316" y1="693.56" y2="699.56"/><line style="stroke:#181818;stroke-width:0.5;" x1="1322" x2="1316" y1="699.56" y2="699.56"/><text fill="#000000" font-family="sans-serif" font-size="14" lengthAdjust="spacing" textLength="64" x="1243" y="714.5551">redisdata</text></g><!--entity 1624c420083928ef3e240dd88f2e52f0--><g id="elem_1624c420083928ef3e240dd88f2e52f0"><ellipse cx="1137" cy="480.27" fill="#F1F1F1" rx="8" ry="8" style="stroke:#181818;stroke-width:0.5;"/><text fill="#000000" font-family="sans-serif" font-size="14" lengthAdjust="spacing" textLength="36" x="1119" y="510.2651">8000</text></g><!--entity c896127ab1831787795a6fc7c8465c9a--><g id="elem_c896127ab1831787795a6fc7c8465c9a"><ellipse cx="1429" cy="480.27" fill="#F1F1F1" rx="8" ry="8" style="stroke:#181818;stroke-width:0.5;"/><text fill="#000000" font-family="sans-serif" font-size="14" lengthAdjust="spacing" textLength="36" x="1411" y="510.2651">6379</text></g><!--link d5baecb173d637b4e1f821d6b00b6f89 to dd5081e4df460924c073d6b5edea2694--><g id="link_d5baecb173d637b4e1f821d6b00b6f89_dd5081e4df460924c073d6b5edea2694"><path codeLine="46" d="M241,609.86 C241,631.48 241,666.65 241,688.28 " fill="none" id="d5baecb173d637b4e1f821d6b00b6f89-dd5081e4df460924c073d6b5edea2694" style="stroke:#181818;stroke-width:1.0;"/><text fill="#000000" font-family="sans-serif" font-size="13" lengthAdjust="spacing" textLength="14" x="242" y="654.6269">rw</text></g><!--link 355aeb7ac3f8fa43e8d94fbf0e4b8d6c to d5baecb173d637b4e1f821d6b00b6f89--><g id="link_355aeb7ac3f8fa43e8d94fbf0e4b8d6c_d5baecb173d637b4e1f821d6b00b6f89"><path codeLine="47" d="M241,214.75 C241,315.98 241,503.43 241,564.18 " fill="none" id="355aeb7ac3f8fa43e8d94fbf0e4b8d6c-to-d5baecb173d637b4e1f821d6b00b6f89" style="stroke:#181818;stroke-width:1.0;stroke-dasharray:7.0,7.0;"/><polygon fill="#181818" points="241,570.18,245,561.18,241,565.18,237,561.18,241,570.18" style="stroke:#181818;stroke-width:1.0;"/><text fill="#000000" font-family="sans-serif" font-size="13" lengthAdjust="spacing" textLength="23" x="242" y="417.3369">use</text></g><!--link 04a565d19766ebe0348853b17c395bd1 to fd433df176955d196b161b0a41a19970--><g id="link_04a565d19766ebe0348853b17c395bd1_fd433df176955d196b161b0a41a19970"><path codeLine="48" d="M878.86,255.56 C907.08,289.32 934.25,321.83 946.38,336.35 " fill="none" id="04a565d19766ebe0348853b17c395bd1-fd433df176955d196b161b0a41a19970" style="stroke:#181818;stroke-width:1.0;"/></g><!--link fd433df176955d196b161b0a41a19970 to 1624c420083928ef3e240dd88f2e52f0--><g id="link_fd433df176955d196b161b0a41a19970_1624c420083928ef3e240dd88f2e52f0"><path codeLine="49" d="M961.87,352.68 C993.03,375.2 1097.2,450.5 1128.21,472.92 " fill="none" id="fd433df176955d196b161b0a41a19970-1624c420083928ef3e240dd88f2e52f0" style="stroke:#181818;stroke-width:1.0;"/></g><!--link 4ae8434c535c76df893919c2b9c9c766 to 58b9e70b65a77700ba66e9c64d6b9f89--><g id="link_4ae8434c535c76df893919c2b9c9c766_58b9e70b65a77700ba66e9c64d6b9f89"><path codeLine="50" d="M792,609.86 C792,631.48 792,666.65 792,688.28 " fill="none" id="4ae8434c535c76df893919c2b9c9c766-58b9e70b65a77700ba66e9c64d6b9f89" style="stroke:#181818;stroke-width:1.0;"/><text fill="#000000" font-family="sans-serif" font-size="13" lengthAdjust="spacing" textLength="14" x="793" y="654.6269">rw</text></g><!--link 04a565d19766ebe0348853b17c395bd1 to 4ae8434c535c76df893919c2b9c9c766--><g id="link_04a565d19766ebe0348853b17c395bd1_4ae8434c535c76df893919c2b9c9c766"><path codeLine="51" d="M792,255.54 C792,361.12 792,510.51 792,564.01 " fill="none" id="04a565d19766ebe0348853b17c395bd1-to-4ae8434c535c76df893919c2b9c9c766" style="stroke:#181818;stroke-width:1.0;stroke-dasharray:7.0,7.0;"/><polygon fill="#181818" points="792,570.01,796,561.01,792,565.01,788,561.01,792,570.01" style="stroke:#181818;stroke-width:1.0;"/><text fill="#000000" font-family="sans-serif" font-size="13" lengthAdjust="spacing" textLength="23" x="793" y="417.3369">use</text></g><!--link 3c217ea98bfddc0f9ff1c849de325d93 to 09876deab5af8de0c168ec3aa053742d--><g id="link_3c217ea98bfddc0f9ff1c849de325d93_09876deab5af8de0c168ec3aa053742d"><path codeLine="52" d="M1300.19,206.83 C1314.6,253.08 1333.85,314.9 1340.57,336.46 " fill="none" id="3c217ea98bfddc0f9ff1c849de325d93-09876deab5af8de0c168ec3aa053742d" style="stroke:#181818;stroke-width:1.0;"/></g><!--link 09876deab5af8de0c168ec3aa053742d to c896127ab1831787795a6fc7c8465c9a--><g id="link_09876deab5af8de0c168ec3aa053742d_c896127ab1831787795a6fc7c8465c9a"><path codeLine="53" d="M1348.12,354.19 C1363.45,377.9 1408.86,448.12 1424.01,471.55 " fill="none" id="09876deab5af8de0c168ec3aa053742d-c896127ab1831787795a6fc7c8465c9a" style="stroke:#181818;stroke-width:1.0;"/></g><!--link 4ee201798dddc2e46fd8eed211348fce to 312384a9c6abb025f036cb3abb76dfa0--><g id="link_4ee201798dddc2e46fd8eed211348fce_312384a9c6abb025f036cb3abb76dfa0"><path codeLine="54" d="M1280,609.86 C1280,631.48 1280,666.65 1280,688.28 " fill="none" id="4ee201798dddc2e46fd8eed211348fce-312384a9c6abb025f036cb3abb76dfa0" style="stroke:#181818;stroke-width:1.0;"/><text fill="#000000" font-family="sans-serif" font-size="13" lengthAdjust="spacing" textLength="14" x="1281" y="654.6269">rw</text></g><!--link 3c217ea98bfddc0f9ff1c849de325d93 to 4ee201798dddc2e46fd8eed211348fce--><g id="link_3c217ea98bfddc0f9ff1c849de325d93_4ee201798dddc2e46fd8eed211348fce"><path codeLine="55" d="M1282.62,206.57 C1281.95,304.98 1280.601,500.9001 1280.171,563.7901 " fill="none" id="3c217ea98bfddc0f9ff1c849de325d93-to-4ee201798dddc2e46fd8eed211348fce" style="stroke:#181818;stroke-width:1.0;stroke-dasharray:7.0,7.0;"/><polygon fill="#181818" points="1280.13,569.79,1284.1914,560.8176,1280.1642,564.7901,1276.1916,560.7629,1280.13,569.79" style="stroke:#181818;stroke-width:1.0;"/><text fill="#000000" font-family="sans-serif" font-size="13" lengthAdjust="spacing" textLength="23" x="1282" y="417.3369">use</text></g><!--SRC=[XLHRRnf757xVNx52UKWj1S_zWkH8sAniDyGRiQ2qYY8qbpCM5GQN9N6hoF-zinEm3KurJxjdvbo_ytrZbilrmztYdyNgjbYjFPIzaUsLfYszb9u3HzHupAWEN77Zc6P4A4ivjkMFedJhk_lr2bRRad9km4hZQ531C0hAQnPiGC2iyiALNugJ4szFJefYSMTkOL3UhzljxGRQ0IPzMi3g-sApNjt5N8FoKzrCBoTLCx-AF_FXR7er_rXDh-hHsNRphTt-Z_Fe_Cp_PLQtwtQrkB-7RLiKNmkpsIw2STkoT_hTR4wN2tkwB_ptyjIRhVavBBS6dCMIUa6bPO238jWBYv0LGUdYSGVEP_Y93k526WvEIyJJtCHfnH2bW0HMsX-YWvZXWdkifH1W0L6c5AUndAEQMuyJEW-Gu3aORbADhfjfVLdFPvFnsPiV1_RZeMzJNKogwVn3zMTqV3QEl4RL-UmoEgJlqTrmFAu_LwC4UnDz3kpZFCFfy7pOLBl6Nfh7dhyFRsB3JJMTNjzSDlEFzMWshhgONrwycceukRWwh_-ODyruL-pLsQkOfhckR-ONTVtXkee5BcQJAiNzuloneydRtygUGWYbtGRFAFK1Iw5vjpHXiS0M6OODrd7XBqdb8YjI43EW66MEK-way94pL6FjYDLEnmFnnA09-4MRGfGms6eKPSPia0WZgkCFnGAmeY3aaS8SmHACLZPuxr3G8M2dcFP02VUQ9WvjkkGTYoA_jx7DGMcM3-RVTY-wT3-WVTB7P3zt9BnE_I2jOkTWB3T1UK0E2mME6eCubOpubtC_AOS148IbLZvsHO29u1M09nX7aWS7SUxdiBtqddNdEL8Oc0zC84sOGvq2BOVO1X6QlOZjfm2kh0OPHScDb3AgqqH5QITOZDATK9y3qgnFbIWcL34JNOsrYF20g72MHgFRba675C0Yzi88GefgeY1G80nvhrGWm4b0Xy0vfGKcqjYuDooLb9eR4PoCwn7SQLFadfVodN-NnQ8Sn9aUUaNsgUttVR__FlkcTVc-jT0higzJrrrM53c7b2MBQqv6AKkE17kaieFjaCeMtIELrM3NNLP6EOUK9SkfdF1IbXphdpYL6soFLAxe3gd_0000]--></g></svg>